<svg version="1.1" id="rocket" width="59.521" xmlns="http://www.w3.org/2000/svg" xmlns:xlink="http://www.w3.org/1999/xlink" x="0px" y="0px" viewBox="0 0 59.5 59.1" style="enable-background:new 0 0 59.5 59.1;" xml:space="preserve">

<g>
	<g transform="translate(569 40.291)">
		<path class="st0" d="M-528.9-32l10.8,11.2c-1.9,5.4-5,10.4-9.1,14.5c-4.1,3.9-8.9,7.1-14.2,9.3l-12.1-12.5
			c1.7-3.7,3.9-7.2,6.5-10.4c1-1.2,2.1-2.4,3.2-3.5C-539.4-27.3-534.4-30.2-528.9-32z"></path>
		<path class="st1" d="M-527.6-22.4c1.8,1.9,1.8,4.9-0.1,6.7s-4.9,1.8-6.7-0.1c-1.8-1.9-1.8-4.9,0.1-6.7c0,0,0,0,0,0
			C-532.4-24.3-529.4-24.3-527.6-22.4z"></path>
		<g transform="translate(727.755 1470.499) rotate(1)">
			<path class="st1" d="M-1283.9-1451.3c6.1,9.2-5.3,15.1-11.8,15.1c2-2,2.9-4.9,2.4-7.7l-1.3-1.3c3.8-1.7,7.3-3.8,10.5-6.4
				L-1283.9-1451.3z"></path>
			<path class="st1" d="M-1308.2-1448.7l-0.2-0.2c-0.6-0.6-0.8-1.4-0.6-2.2c0.6-2.2,1.3-4.3,2.2-6.3l12.3,12.3
				c-2,0.9-4.2,1.7-6.3,2.2c-0.8,0.2-1.6-0.1-2.2-0.6l-0.2-0.2L-1308.2-1448.7z"></path>
			<path class="st1" d="M-1300.7-1468.1l0.2,0.2c-2.6,3.2-4.7,6.7-6.4,10.5l-1.3-1.3c-2.8-0.5-5.7,0.4-7.7,2.4
				C-1315.8-1462.7-1309.8-1474.2-1300.7-1468.1z"></path>
		</g>
		<path class="st0" d="M-559,3.2l4.9,5.1c-0.5,1.6-1.4,3-2.6,4.2c-2.8,2.7-10.1,3.2-10.1,3.2s0.7-7.3,3.5-10
			C-562.1,4.4-560.6,3.6-559,3.2z"></path>
	</g>
	<path class="st0" d="M54.9,4.8c-0.3,4-1.2,7.9-2.6,11.6L43.2,7C47,5.7,50.9,5,54.9,4.8z"></path>
	<path class="st2" d="M41.4,17.9c1.8,1.9,1.8,4.9-0.1,6.7c-1.9,1.8-4.9,1.8-6.7-0.1c-1.8-1.9-1.8-4.9,0.1-6.7c0,0,0,0,0,0
		C36.6,16,39.6,16,41.4,17.9z"></path>
	<g transform="translate(719.983 1470.593) rotate(1)">
		<path class="st3" d="M-705-1418.7c7.5,11.3-6.6,18.6-14.4,18.6c2.4-2.5,3.5-6,2.9-9.5l-1.5-1.5c4.6-2,8.9-4.7,12.9-7.8
			L-705-1418.7z"></path>
		<path class="st3" d="M-734.9-1415.6l-0.2-0.2c-0.7-0.7-1-1.7-0.8-2.7c0.7-2.7,1.6-5.3,2.7-7.8l15.1,15.1c-2.5,1.1-5.1,2-7.8,2.7
			c-1,0.2-2-0.1-2.7-0.8l-0.2-0.2L-734.9-1415.6z"></path>
		<path class="st3" d="M-725.6-1439.3l0.2,0.2c-3.2,3.9-5.8,8.3-7.8,12.9l-1.5-1.5c-3.4-0.6-7,0.5-9.5,2.9
			C-744.2-1432.8-736.9-1446.9-725.6-1439.3z"></path>
	</g>
	<path class="st2" d="M24.5,13.2c0,0,5-5.2,16-9c5.9-2.1,12.1-3.3,18.4-3.4"></path>
	<path class="st2" d="M45,35.6c4.9-5.2,8.6-11.5,10.8-18.4c1.8-5.3,2.8-10.9,2.9-16.5"></path>
</g>
</svg>