<svg xmlns="http://www.w3.org/2000/svg" id="Innovation" width="54.5" viewBox="0 0 54.5 67">
  <g id="Group_149" data-name="Group 149" transform="translate(-3543.25 1578.75)">
    <path id="Path_635" data-name="Path 635" d="M91.215,371.045a22.581,22.581,0,0,1,11.69,41.9v4.93a3.009,3.009,0,0,1-3,3H91.211l-8.689-.058a3.009,3.009,0,0,1-2.98-3.02l.079-4.93a22.581,22.581,0,0,1,11.97-41.821Z" transform="translate(3479.14 -1945.045)" fill="#fdb811"></path>
    <line id="Line_425" data-name="Line 425" x2="18" transform="translate(3561.5 -1520.5)" fill="none" stroke="#003a78" stroke-width="1.5"></line>
    <line id="Line_426" data-name="Line 426" x2="18" transform="translate(3561.5 -1516.5)" fill="none" stroke="#003a78" stroke-width="1.5"></line>
    <line id="Line_427" data-name="Line 427" x2="16" transform="translate(3562.5 -1512.5)" fill="none" stroke="#003a78" stroke-width="1.5"></line>
    <path id="Path_579" data-name="Path 579" d="M88.917,396.991h8.605a3.775,3.775,0,0,0,3.775-3.775,3.85,3.85,0,0,0-3.775-3.775,3.786,3.786,0,0,0-3.759,3.775c-.024,1.975,0,29.394,0,29.394" transform="translate(3479.579 -1946.779)" fill="none" stroke="#003a78" stroke-width="1.5"></path>
    <path id="Path_580" data-name="Path 580" d="M89.9,396.991H81.293a3.775,3.775,0,0,1-3.775-3.775,3.85,3.85,0,0,1,3.775-3.775,3.786,3.786,0,0,1,3.759,3.775c.024,1.975,0,29.41,0,29.41" transform="translate(3481.947 -1946.779)" fill="none" stroke="#003a78" stroke-width="1.5"></path>
    <path id="Path_662" data-name="Path 662" d="M53,21.5a26.5,26.5,0,1,1-53,0" transform="translate(3597 -1530) rotate(180)" fill="none" stroke="#245991" stroke-width="1.5"></path>
    <path id="Path_663" data-name="Path 663" d="M9.284,41.646a26.171,26.171,0,0,1-6.939-9.2" transform="translate(3544 -1573)" fill="none" stroke="#245991" stroke-width="1.5"></path>
    <path id="Path_664" data-name="Path 664" d="M6.939,0A26.171,26.171,0,0,0,0,9.2" transform="translate(3594.539 -1531.354) rotate(180)" fill="none" stroke="#245991" stroke-width="1.5"></path>
  </g>
</svg>