<?xml version="1.0" encoding="utf-8"?>
<!-- Generator: Adobe Illustrator 23.0.2, SVG Export Plug-In . SVG Version: 6.00 Build 0)  -->
<svg version="1.1" xmlns="http://www.w3.org/2000/svg" xmlns:xlink="http://www.w3.org/1999/xlink" x="0px" y="0px"
	 viewBox="0 0 1870 1122" style="enable-background:new 0 0 1870 1122;" xml:space="preserve">
<style type="text/css">
	.st0{fill:#FFFFFF;}
	.st1{fill:#CFEFFA;}
	.st2{fill:#583C1C;}
	.st3{fill:#A22330;}
	.st4{clip-path:url(#XMLID_2_);fill:#F0CB6D;}
	.st5{opacity:0.14;clip-path:url(#XMLID_2_);fill:#272425;}
	.st6{fill:#65A7DD;}
	.st7{font-family:'MyriadPro-Regular';}
	.st8{font-size:172px;}
</style>
<g id="BG">
	<rect class="st0" width="1870" height="1122"/>
</g>
<g id="Objects">
	<circle id="XMLID_484_" class="st1" cx="457.98" cy="580.37" r="322.34"/>
	<rect id="XMLID_483_" x="450.39" y="239.47" class="st2" width="8.2" height="211.36"/>
	<path id="XMLID_482_" class="st3" d="M458.24,248.36c0,0,75.79-7.71,70.61,6.97c-5.18,14.68,48.28,16.08,73.61,9.05
		c0,0-5.63,22.51-11.25,53.46c-5.63,30.95-91.45,12.66-84.41,0c7.03-12.66-48.2-7.03-48.2-7.03L458.24,248.36z"/>
	<g id="XMLID_473_">
		<defs>
			<circle id="XMLID_474_" cx="457.98" cy="580.37" r="322.34"/>
		</defs>
		<clipPath id="XMLID_2_">
			<use xlink:href="#XMLID_474_"  style="overflow:visible;"/>
		</clipPath>
		<polygon class="st4" points="622.45,584.77 438.14,950.72 806.76,950.72 		"/>
		<polygon id="XMLID_480_" class="st5" points="806.76,950.72 622.45,584.77 622.45,950.72 		"/>
		<polygon id="XMLID_479_" class="st4" points="455.21,408.5 455.21,937.46 679.14,937.46 		"/>
		<polygon class="st4" points="273.67,553.37 89.36,919.32 457.98,919.32 		"/>
		<polygon id="XMLID_477_" class="st5" points="457.98,919.32 273.67,553.37 273.67,919.32 		"/>
		<polygon id="XMLID_476_" class="st4" points="454.61,407.07 230.07,937.46 455.21,937.46 455.21,408.5 		"/>
		<polygon id="XMLID_475_" class="st5" points="455.21,408.5 455.21,937.46 679.14,937.46 		"/>
	</g>
	<path id="XMLID_602_" class="st6" d="M1704.1,488.1h-154.78l0,0h-27.89c-10.21,0-18.49-8.28-18.49-18.49
		c0-10.21,8.28-18.49,18.49-18.49h27.89h75.12c16.71,0,30.25-13.54,30.25-30.25v0c0-16.71-13.54-30.25-30.25-30.25H1520.7h-105.37
		h-885c-15.81,0-28.62,12.81-28.62,28.62l77.37,192.54c0,15.81,12.81,28.62,28.62,28.62h810.53c2.75,0.83,5.67-0.14,8.7-0.14h209.12
		c16.71,0,30.25-12.13,30.25-28.83l0,0c0-16.71-13.54-30.25-30.25-30.25h-71.27c-3.99-3.39-6.53-8.44-6.53-14.09
		c0-10.21,8.28-18.49,18.49-18.49h127.37c16.71,0,30.25-13.54,30.25-30.25l0,0C1734.35,501.65,1720.81,488.1,1704.1,488.1z"/>
	<g id="XMLID_117_">
		<g id="XMLID_191_">
			<path class="st6" d="M1242.27,791.6c-1.23,0-2.46-0.47-3.4-1.41c-1.88-1.88-1.88-4.92,0-6.8l34.46-34.46
				c1.88-1.88,4.92-1.88,6.8,0c1.88,1.88,1.88,4.92,0,6.8l-34.46,34.46C1244.73,791.13,1243.5,791.6,1242.27,791.6z"/>
		</g>
		<g id="XMLID_119_">
			<path class="st6" d="M1276.73,791.6c-1.23,0-2.46-0.47-3.4-1.41l-34.46-34.46c-1.88-1.88-1.88-4.92,0-6.8
				c1.88-1.88,4.92-1.88,6.8,0l34.46,34.46c1.88,1.88,1.88,4.92,0,6.8C1279.19,791.13,1277.96,791.6,1276.73,791.6z"/>
		</g>
	</g>
	<g id="XMLID_114_">
		<g id="XMLID_116_">
			<path class="st6" d="M797.55,882.89c-1.23,0-2.46-0.47-3.4-1.41c-1.88-1.88-1.88-4.92,0-6.8l34.46-34.46
				c1.88-1.88,4.92-1.88,6.8,0c1.88,1.88,1.88,4.92,0,6.8l-34.46,34.46C800.01,882.42,798.78,882.89,797.55,882.89z"/>
		</g>
		<g id="XMLID_115_">
			<path class="st6" d="M832,882.89c-1.23,0-2.46-0.47-3.4-1.41l-34.46-34.46c-1.88-1.88-1.88-4.92,0-6.8c1.88-1.88,4.92-1.88,6.8,0
				l34.46,34.46c1.88,1.88,1.88,4.92,0,6.8C834.46,882.42,833.23,882.89,832,882.89z"/>
		</g>
	</g>
	<g id="XMLID_113_">
		<path class="st6" d="M1608.55,864.72c-9.01,0-16.35-7.33-16.35-16.35s7.33-16.35,16.35-16.35c9.01,0,16.35,7.33,16.35,16.35
			S1617.57,864.72,1608.55,864.72z M1608.55,838.75c-5.31,0-9.62,4.32-9.62,9.62c0,5.31,4.32,9.62,9.62,9.62
			c5.31,0,9.62-4.32,9.62-9.62C1618.17,843.07,1613.86,838.75,1608.55,838.75z"/>
	</g>
	<g id="XMLID_112_">
		<path class="st6" d="M1053.57,968.77c-12.89,0-23.37-10.48-23.37-23.37c0-12.89,10.49-23.37,23.37-23.37s23.37,10.48,23.37,23.37
			C1076.94,958.29,1066.46,968.77,1053.57,968.77z M1053.57,931.64c-7.59,0-13.76,6.17-13.76,13.76c0,7.59,6.17,13.76,13.76,13.76
			c7.59,0,13.76-6.17,13.76-13.76C1067.33,937.81,1061.16,931.64,1053.57,931.64z"/>
	</g>
	<g id="XMLID_111_">
		<path class="st6" d="M1548.83,730.38h-88.41c-2.66,0-4.81-2.15-4.81-4.81c0-2.66,2.15-4.81,4.81-4.81h88.41
			c2.66,0,4.81,2.15,4.81,4.81C1553.63,728.23,1551.48,730.38,1548.83,730.38z"/>
	</g>
	<g id="XMLID_107_">
		<path class="st6" d="M1194.08,950.21h-82.29c-2.66,0-4.81-2.15-4.81-4.81c0-2.66,2.15-4.81,4.81-4.81h82.29
			c2.66,0,4.81,2.15,4.81,4.81C1198.89,948.05,1196.74,950.21,1194.08,950.21z"/>
	</g>
	<g id="XMLID_402_">
		<g id="XMLID_404_">
			<path class="st6" d="M754.89,180.07c-1.23,0-2.46-0.47-3.4-1.41c-1.88-1.88-1.88-4.92,0-6.8l34.46-34.46
				c1.88-1.88,4.92-1.88,6.8,0c1.88,1.88,1.88,4.92,0,6.8l-34.46,34.46C757.35,179.6,756.12,180.07,754.89,180.07z"/>
		</g>
		<g id="XMLID_403_">
			<path class="st6" d="M789.34,180.07c-1.23,0-2.46-0.47-3.4-1.41l-34.46-34.46c-1.88-1.88-1.88-4.92,0-6.8
				c1.88-1.88,4.92-1.88,6.8,0l34.46,34.46c1.88,1.88,1.88,4.92,0,6.8C791.8,179.6,790.57,180.07,789.34,180.07z"/>
		</g>
	</g>
	<g id="XMLID_401_">
		<path class="st6" d="M1081.4,291.78c-12.89,0-23.37-10.48-23.37-23.37c0-12.89,10.49-23.37,23.37-23.37
			c12.89,0,23.37,10.48,23.37,23.37C1104.77,281.29,1094.29,291.78,1081.4,291.78z M1081.4,254.65c-7.59,0-13.76,6.17-13.76,13.76
			c0,7.59,6.17,13.76,13.76,13.76c7.59,0,13.76-6.17,13.76-13.76C1095.15,260.82,1088.98,254.65,1081.4,254.65z"/>
	</g>
	<g id="XMLID_398_">
		<g id="XMLID_400_">
			<path class="st6" d="M1584.98,237.48c-1.23,0-2.46-0.47-3.4-1.41c-1.88-1.88-1.88-4.92,0-6.8l34.46-34.46
				c1.88-1.88,4.92-1.88,6.8,0c1.88,1.88,1.88,4.92,0,6.8l-34.46,34.46C1587.44,237.01,1586.21,237.48,1584.98,237.48z"/>
		</g>
		<g id="XMLID_399_">
			<path class="st6" d="M1619.44,237.48c-1.23,0-2.46-0.47-3.4-1.41l-34.46-34.46c-1.88-1.88-1.88-4.92,0-6.8
				c1.88-1.88,4.92-1.88,6.8,0l34.46,34.46c1.88,1.88,1.88,4.92,0,6.8C1621.9,237.01,1620.67,237.48,1619.44,237.48z"/>
		</g>
	</g>
	<g id="XMLID_397_">
		<path class="st6" d="M1251.47,273.21H1150.6c-2.66,0-4.81-2.15-4.81-4.81s2.15-4.81,4.81-4.81h100.87c2.66,0,4.81,2.15,4.81,4.81
			S1254.12,273.21,1251.47,273.21z"/>
	</g>
	<g id="XMLID_360_">
		<g id="XMLID_424_">
			<path class="st6" d="M241.47,986c-1.23,0-2.46-0.47-3.4-1.41c-1.88-1.88-1.88-4.92,0-6.8l34.46-34.46c1.88-1.88,4.92-1.88,6.8,0
				c1.88,1.88,1.88,4.92,0,6.8l-34.46,34.46C243.93,985.53,242.7,986,241.47,986z"/>
		</g>
		<g id="XMLID_423_">
			<path class="st6" d="M275.92,986c-1.23,0-2.46-0.47-3.4-1.41l-34.46-34.46c-1.88-1.88-1.88-4.92,0-6.8c1.88-1.88,4.92-1.88,6.8,0
				l34.46,34.46c1.88,1.88,1.88,4.92,0,6.8C278.38,985.53,277.15,986,275.92,986z"/>
		</g>
	</g>
	<g id="XMLID_425_">
		<path class="st6" d="M240.59,238.81c-12.89,0-23.37-10.48-23.37-23.37c0-12.89,10.49-23.37,23.37-23.37
			c12.89,0,23.37,10.48,23.37,23.37C263.96,228.33,253.48,238.81,240.59,238.81z M240.59,201.68c-7.59,0-13.76,6.17-13.76,13.76
			c0,7.59,6.17,13.76,13.76,13.76c7.59,0,13.76-6.17,13.76-13.76C254.35,207.85,248.17,201.68,240.59,201.68z"/>
	</g>
	<text transform="matrix(1 0 0 1 750.0792 580.3701)" class="st0 st7 st8">MISIÓN</text>
</g>
</svg>
