<svg xmlns="http://www.w3.org/2000/svg" id="Partnership" width="78.247" viewBox="0 0 78.247 66.748">
  <g id="Group_291" data-name="Group 291" transform="translate(-1272.503 -1115.776)">
    <g id="Group_110" data-name="Group 110" transform="translate(198 43)">
      <path id="Path_584" data-name="Path 584" d="M200.7,66.755l-1.071,1.071a7.742,7.742,0,0,1-5.475,2.268h-5.168l-3.956,3.956a4.325,4.325,0,0,1-6.117,0h0a4.325,4.325,0,0,1,0-6.117l9.032-9.032a18.9,18.9,0,0,1,26.722,0h0a18.9,18.9,0,0,1,0,26.722l-2.544,2.544a8.048,8.048,0,0,0-1.14-2.936C206.96,80.85,196.035,70.64,196.035,70.64" transform="translate(929.8 1033.48)" fill="#fff"></path>
      <path id="Path_640" data-name="Path 640" d="M16.03,86.013l-.494-.494a18.9,18.9,0,0,1,0-26.722h0c.236-.236.477-.465.946-.884a18.828,18.828,0,0,1,25.776.884l.024.024.025.025L34.5,66.387s-4.719,3.862-1.15,7.453c2.063,2.076,4.921,1.88,9.973-3.83-.09-.017,6.934,0,6.934,0L65.045,84.8a3.632,3.632,0,0,1,0,5.136h0a3.632,3.632,0,0,1-5.136,0l-5.461-5.461,5.461,5.461a3.632,3.632,0,0,1,0,5.136h0a3.632,3.632,0,0,1-5.136,0L49.311,89.61l5.461,5.461a3.632,3.632,0,0,1,0,5.136h0a3.632,3.632,0,0,1-5.136,0l-5.461-5.461-.046.046,5.461,5.461a3.632,3.632,0,0,1,0,5.136h0a3.632,3.632,0,0,1-5.136,0l-3.1-3.1Z" transform="translate(1077.451 1032.57)" fill="#fdb811"></path>
      <path id="Path_583" data-name="Path 583" d="M16.03,86.013l-.494-.494a18.9,18.9,0,0,1,0-26.722h0c.236-.236.477-.465.946-.884a18.828,18.828,0,0,1,25.776.884l.024.024.025.025L34.5,66.387s-4.361,3.363-.792,6.954c2.063,2.076,4.743,1.548,9.8-4.162-.09-.017,6.086,0,6.086,0L65.045,84.8a3.632,3.632,0,0,1,0,5.136h0a3.632,3.632,0,0,1-5.136,0l-5.461-5.461,5.461,5.461a3.632,3.632,0,0,1,0,5.136h0a3.632,3.632,0,0,1-5.136,0L49.311,89.61l5.461,5.461a3.632,3.632,0,0,1,0,5.136h0a3.632,3.632,0,0,1-5.136,0l-5.461-5.461-.046.046,5.461,5.461a3.632,3.632,0,0,1,0,5.136h0a3.632,3.632,0,0,1-5.136,0l-3.1-3.1Z" transform="translate(1077.451 1032.57)" fill="none" stroke="#fff" stroke-linecap="round" stroke-linejoin="round" stroke-width="1"></path>
      <path id="Path_636" data-name="Path 636" d="M181.686,382.294l-2.261,2.261a3.632,3.632,0,0,0,0,5.136h0a3.632,3.632,0,0,0,5.136,0l2.261-2.261a3.632,3.632,0,0,0,0-5.136h0A3.632,3.632,0,0,0,181.686,382.294Z" transform="translate(931.177 746.626)" fill="#fff"></path>
      <path id="Path_637" data-name="Path 637" d="M142.532,343.141l-2.261,2.261a3.632,3.632,0,0,0,0,5.136h0a3.632,3.632,0,0,0,5.136,0l2.261-2.261a3.632,3.632,0,0,0,0-5.136h0A3.632,3.632,0,0,0,142.532,343.141Z" transform="translate(965.195 780.643)" fill="#fff"></path>
      <path id="Path_638" data-name="Path 638" d="M103.378,303.986l-2.261,2.261a3.632,3.632,0,0,0,0,5.136h0a3.632,3.632,0,0,0,5.136,0l2.261-2.261a3.632,3.632,0,0,0,0-5.136h0A3.632,3.632,0,0,0,103.378,303.986Z" transform="translate(999.213 814.661)" fill="#fff"></path>
      <path id="Path_639" data-name="Path 639" d="M64.224,264.831l-2.261,2.261a3.632,3.632,0,0,0,0,5.136h0a3.632,3.632,0,0,0,5.136,0l2.261-2.261a3.632,3.632,0,0,0,0-5.136h0A3.632,3.632,0,0,0,64.224,264.831Z" transform="translate(1033.231 848.68)" fill="#fff"></path>
      <path id="Path_585" data-name="Path 585" d="M181.686,382.294l-2.261,2.261a3.632,3.632,0,0,0,0,5.136h0a3.632,3.632,0,0,0,5.136,0l2.261-2.261a3.632,3.632,0,0,0,0-5.136h0A3.632,3.632,0,0,0,181.686,382.294Z" transform="translate(931.177 746.626)" fill="none" stroke="#003a78" stroke-linecap="round" stroke-linejoin="round" stroke-width="1.5"></path>
      <path id="Path_586" data-name="Path 586" d="M142.532,343.141l-2.261,2.261a3.632,3.632,0,0,0,0,5.136h0a3.632,3.632,0,0,0,5.136,0l2.261-2.261a3.632,3.632,0,0,0,0-5.136h0A3.632,3.632,0,0,0,142.532,343.141Z" transform="translate(965.195 780.643)" fill="none" stroke="#003a78" stroke-linecap="round" stroke-linejoin="round" stroke-width="1.5"></path>
      <path id="Path_587" data-name="Path 587" d="M103.378,303.986l-2.261,2.261a3.632,3.632,0,0,0,0,5.136h0a3.632,3.632,0,0,0,5.136,0l2.261-2.261a3.632,3.632,0,0,0,0-5.136h0A3.632,3.632,0,0,0,103.378,303.986Z" transform="translate(999.213 814.661)" fill="none" stroke="#003a78" stroke-linecap="round" stroke-linejoin="round" stroke-width="1.5"></path>
      <path id="Path_588" data-name="Path 588" d="M64.224,264.831l-2.261,2.261a3.632,3.632,0,0,0,0,5.136h0a3.632,3.632,0,0,0,5.136,0l2.261-2.261a3.632,3.632,0,0,0,0-5.136h0A3.632,3.632,0,0,0,64.224,264.831Z" transform="translate(1033.231 848.68)" fill="none" stroke="#003a78" stroke-linecap="round" stroke-linejoin="round" stroke-width="1.5"></path>
      <path id="Path_584-2" data-name="Path 584" d="M200.7,66.755l-1.071,1.071a7.742,7.742,0,0,1-5.475,2.268h-5.168l-3.956,3.956a4.325,4.325,0,0,1-6.117,0h0a4.325,4.325,0,0,1,0-6.117l9.032-9.032a18.9,18.9,0,0,1,26.722,0h0a18.9,18.9,0,0,1,0,26.722l-2.291,2.265a9.848,9.848,0,0,0-1.393-2.657c-2.16-2.353-6.31-6.386-9.907-9.824-2.7-2.579-5.04-4.767-5.04-4.767" transform="translate(931.8 1031.48)" fill="none" stroke="#003a78" stroke-linecap="round" stroke-linejoin="round" stroke-width="1.5"></path>
      <path id="Path_889" data-name="Path 889" d="M1129.334,1101.94h0c-.908.255-2.7.632-2.7.632s14.942,14.657,15.224,14.8a3.426,3.426,0,0,1,1.111,1.892c.152.976,1.853,1.887,2.436,1.263a10.54,10.54,0,0,0,1.273-2.194s-1.117,1.165-1.809.452a1.141,1.141,0,0,1,.154-1.656l-10.761-10.524Z" fill="#fff"></path>
    </g>
    <path id="Path_890" data-name="Path 890" d="M42.772,25.469A21.575,21.575,0,0,1,.284,25" transform="translate(1334.115 1144.865) rotate(131)" fill="none" stroke="#003a78" stroke-linecap="round" stroke-width="1.5"></path>
  </g>
</svg>