<?xml version="1.0" encoding="utf-8"?>
<!-- Generator: Adobe Illustrator 23.0.2, SVG Export Plug-In . SVG Version: 6.00 Build 0)  -->
<svg version="1.1" xmlns="http://www.w3.org/2000/svg" xmlns:xlink="http://www.w3.org/1999/xlink" x="0px" y="0px"
	 viewBox="0 0 1870 1122" style="enable-background:new 0 0 1870 1122;" xml:space="preserve">
<style type="text/css">
	.st0{fill:#FFFFFF;}
	.st1{fill:#CFEFFA;}
	.st2{fill:none;}
	.st3{fill:#65A7DD;}
	.st4{font-family:'MyriadPro-Regular';}
	.st5{font-size:172px;}
	.st6{opacity:0.5;fill:#FFFFFF;}
	.st7{fill:url(#SVGID_1_);}
	.st8{fill:url(#SVGID_2_);}
	.st9{fill:url(#SVGID_3_);}
	.st10{fill:url(#SVGID_4_);}
	.st11{fill:url(#SVGID_5_);}
	.st12{fill:url(#SVGID_6_);}
	.st13{fill:url(#SVGID_7_);}
	.st14{fill:url(#SVGID_8_);}
	.st15{fill:url(#SVGID_9_);}
	.st16{fill:url(#SVGID_10_);}
	.st17{fill:url(#SVGID_11_);}
	.st18{fill:url(#SVGID_12_);}
	.st19{fill:url(#SVGID_13_);}
	.st20{fill:url(#SVGID_14_);}
	.st21{fill:url(#SVGID_15_);}
	.st22{fill:url(#SVGID_16_);}
	.st23{fill:url(#SVGID_17_);}
	.st24{fill:url(#SVGID_18_);}
	.st25{fill:url(#SVGID_19_);}
	.st26{fill:url(#SVGID_20_);}
	.st27{fill:url(#SVGID_21_);}
	.st28{fill:url(#SVGID_22_);}
	.st29{fill:#272425;}
	.st30{opacity:0.4;fill:#FFFFFF;}
	.st31{fill:url(#SVGID_23_);}
	.st32{opacity:0.5;fill:url(#SVGID_24_);}
	.st33{opacity:0.5;fill:url(#SVGID_25_);}
	.st34{fill:url(#SVGID_26_);}
</style>
<g id="BG">
	<rect class="st0" width="1870" height="1122"/>
</g>
<g id="Objects">
	<circle id="XMLID_484_" class="st1" cx="457.98" cy="580.37" r="322.34"/>
	<circle id="XMLID_474_" class="st2" cx="457.98" cy="580.37" r="322.34"/>
	<path id="XMLID_602_" class="st3" d="M1704.1,488.1h-154.78l0,0h-27.89c-10.21,0-18.49-8.28-18.49-18.49
		c0-10.21,8.28-18.49,18.49-18.49h27.89h75.12c16.71,0,30.25-13.54,30.25-30.25v0c0-16.71-13.54-30.25-30.25-30.25H1520.7h-105.37
		h-885c-15.81,0-28.62,12.81-28.62,28.62l77.37,192.54c0,15.81,12.81,28.62,28.62,28.62h810.53c2.75,0.83,5.67-0.14,8.7-0.14h209.12
		c16.71,0,30.25-12.13,30.25-28.83l0,0c0-16.71-13.54-30.25-30.25-30.25h-71.27c-3.99-3.39-6.53-8.44-6.53-14.09
		c0-10.21,8.28-18.49,18.49-18.49h127.37c16.71,0,30.25-13.54,30.25-30.25l0,0C1734.35,501.65,1720.81,488.1,1704.1,488.1z"/>
	<g id="XMLID_117_">
		<g id="XMLID_191_">
			<path class="st3" d="M1242.27,791.6c-1.23,0-2.46-0.47-3.4-1.41c-1.88-1.88-1.88-4.92,0-6.8l34.46-34.46
				c1.88-1.88,4.92-1.88,6.8,0c1.88,1.88,1.88,4.92,0,6.8l-34.46,34.46C1244.73,791.13,1243.5,791.6,1242.27,791.6z"/>
		</g>
		<g id="XMLID_119_">
			<path class="st3" d="M1276.73,791.6c-1.23,0-2.46-0.47-3.4-1.41l-34.46-34.46c-1.88-1.88-1.88-4.92,0-6.8
				c1.88-1.88,4.92-1.88,6.8,0l34.46,34.46c1.88,1.88,1.88,4.92,0,6.8C1279.19,791.13,1277.96,791.6,1276.73,791.6z"/>
		</g>
	</g>
	<g id="XMLID_114_">
		<g id="XMLID_116_">
			<path class="st3" d="M797.55,882.89c-1.23,0-2.46-0.47-3.4-1.41c-1.88-1.88-1.88-4.92,0-6.8l34.46-34.46
				c1.88-1.88,4.92-1.88,6.8,0c1.88,1.88,1.88,4.92,0,6.8l-34.46,34.46C800.01,882.42,798.78,882.89,797.55,882.89z"/>
		</g>
		<g id="XMLID_115_">
			<path class="st3" d="M832,882.89c-1.23,0-2.46-0.47-3.4-1.41l-34.46-34.46c-1.88-1.88-1.88-4.92,0-6.8c1.88-1.88,4.92-1.88,6.8,0
				l34.46,34.46c1.88,1.88,1.88,4.92,0,6.8C834.46,882.42,833.23,882.89,832,882.89z"/>
		</g>
	</g>
	<g id="XMLID_113_">
		<path class="st3" d="M1608.55,864.72c-9.01,0-16.35-7.33-16.35-16.35s7.33-16.35,16.35-16.35c9.01,0,16.35,7.33,16.35,16.35
			S1617.57,864.72,1608.55,864.72z M1608.55,838.75c-5.31,0-9.62,4.32-9.62,9.62c0,5.31,4.32,9.62,9.62,9.62
			c5.31,0,9.62-4.32,9.62-9.62C1618.17,843.07,1613.86,838.75,1608.55,838.75z"/>
	</g>
	<g id="XMLID_112_">
		<path class="st3" d="M1053.57,968.77c-12.89,0-23.37-10.48-23.37-23.37c0-12.89,10.49-23.37,23.37-23.37s23.37,10.48,23.37,23.37
			C1076.94,958.29,1066.46,968.77,1053.57,968.77z M1053.57,931.64c-7.59,0-13.76,6.17-13.76,13.76c0,7.59,6.17,13.76,13.76,13.76
			c7.59,0,13.76-6.17,13.76-13.76C1067.33,937.81,1061.16,931.64,1053.57,931.64z"/>
	</g>
	<g id="XMLID_111_">
		<path class="st3" d="M1548.83,730.38h-88.41c-2.66,0-4.81-2.15-4.81-4.81c0-2.66,2.15-4.81,4.81-4.81h88.41
			c2.66,0,4.81,2.15,4.81,4.81C1553.63,728.23,1551.48,730.38,1548.83,730.38z"/>
	</g>
	<g id="XMLID_107_">
		<path class="st3" d="M1194.08,950.21h-82.29c-2.66,0-4.81-2.15-4.81-4.81c0-2.66,2.15-4.81,4.81-4.81h82.29
			c2.66,0,4.81,2.15,4.81,4.81C1198.89,948.05,1196.74,950.21,1194.08,950.21z"/>
	</g>
	<g id="XMLID_402_">
		<g id="XMLID_404_">
			<path class="st3" d="M754.89,180.07c-1.23,0-2.46-0.47-3.4-1.41c-1.88-1.88-1.88-4.92,0-6.8l34.46-34.46
				c1.88-1.88,4.92-1.88,6.8,0c1.88,1.88,1.88,4.92,0,6.8l-34.46,34.46C757.35,179.6,756.12,180.07,754.89,180.07z"/>
		</g>
		<g id="XMLID_403_">
			<path class="st3" d="M789.34,180.07c-1.23,0-2.46-0.47-3.4-1.41l-34.46-34.46c-1.88-1.88-1.88-4.92,0-6.8
				c1.88-1.88,4.92-1.88,6.8,0l34.46,34.46c1.88,1.88,1.88,4.92,0,6.8C791.8,179.6,790.57,180.07,789.34,180.07z"/>
		</g>
	</g>
	<g id="XMLID_401_">
		<path class="st3" d="M1081.4,291.78c-12.89,0-23.37-10.48-23.37-23.37c0-12.89,10.49-23.37,23.37-23.37
			c12.89,0,23.37,10.48,23.37,23.37C1104.77,281.29,1094.29,291.78,1081.4,291.78z M1081.4,254.65c-7.59,0-13.76,6.17-13.76,13.76
			c0,7.59,6.17,13.76,13.76,13.76c7.59,0,13.76-6.17,13.76-13.76C1095.15,260.82,1088.98,254.65,1081.4,254.65z"/>
	</g>
	<g id="XMLID_398_">
		<g id="XMLID_400_">
			<path class="st3" d="M1584.98,237.48c-1.23,0-2.46-0.47-3.4-1.41c-1.88-1.88-1.88-4.92,0-6.8l34.46-34.46
				c1.88-1.88,4.92-1.88,6.8,0c1.88,1.88,1.88,4.92,0,6.8l-34.46,34.46C1587.44,237.01,1586.21,237.48,1584.98,237.48z"/>
		</g>
		<g id="XMLID_399_">
			<path class="st3" d="M1619.44,237.48c-1.23,0-2.46-0.47-3.4-1.41l-34.46-34.46c-1.88-1.88-1.88-4.92,0-6.8
				c1.88-1.88,4.92-1.88,6.8,0l34.46,34.46c1.88,1.88,1.88,4.92,0,6.8C1621.9,237.01,1620.67,237.48,1619.44,237.48z"/>
		</g>
	</g>
	<g id="XMLID_397_">
		<path class="st3" d="M1251.47,273.21H1150.6c-2.66,0-4.81-2.15-4.81-4.81s2.15-4.81,4.81-4.81h100.87c2.66,0,4.81,2.15,4.81,4.81
			S1254.12,273.21,1251.47,273.21z"/>
	</g>
	<g id="XMLID_360_">
		<g id="XMLID_424_">
			<path class="st3" d="M241.47,986c-1.23,0-2.46-0.47-3.4-1.41c-1.88-1.88-1.88-4.92,0-6.8l34.46-34.46c1.88-1.88,4.92-1.88,6.8,0
				c1.88,1.88,1.88,4.92,0,6.8l-34.46,34.46C243.93,985.53,242.7,986,241.47,986z"/>
		</g>
		<g id="XMLID_423_">
			<path class="st3" d="M275.92,986c-1.23,0-2.46-0.47-3.4-1.41l-34.46-34.46c-1.88-1.88-1.88-4.92,0-6.8c1.88-1.88,4.92-1.88,6.8,0
				l34.46,34.46c1.88,1.88,1.88,4.92,0,6.8C278.38,985.53,277.15,986,275.92,986z"/>
		</g>
	</g>
	<g id="XMLID_425_">
		<path class="st3" d="M240.59,238.81c-12.89,0-23.37-10.48-23.37-23.37c0-12.89,10.49-23.37,23.37-23.37
			c12.89,0,23.37,10.48,23.37,23.37C263.96,228.33,253.48,238.81,240.59,238.81z M240.59,201.68c-7.59,0-13.76,6.17-13.76,13.76
			c0,7.59,6.17,13.76,13.76,13.76c7.59,0,13.76-6.17,13.76-13.76C254.35,207.85,248.17,201.68,240.59,201.68z"/>
	</g>
	<text transform="matrix(1 0 0 1 750.0792 580.3701)" class="st0 st4 st5">VISIÓN</text>
	<g>
		<g>
			<path class="st6" d="M459.98,383.91v-0.06c-0.5,0.01-1,0.02-1.5,0.03c-0.5-0.01-1-0.02-1.5-0.03v0.06
				C238.84,388.45,162.02,589.79,162,589.87h1v0h0c0.03,0.08,75.85,202.42,293.99,206.96v0.06c0.5,0,1-0.02,1.5-0.03
				c0.5,0.01,1,0.02,1.5,0.03v-0.06c218.14-4.54,293.96-206.89,293.99-206.96v0C753.94,589.79,678.12,388.45,459.98,383.91z"/>
			<linearGradient id="SVGID_1_" gradientUnits="userSpaceOnUse" x1="464.1989" y1="393.3472" x2="464.1989" y2="781.874">
				<stop  offset="0" style="stop-color:#BCBDBF;stop-opacity:0.9734"/>
				<stop  offset="0.1684" style="stop-color:#BABBBC;stop-opacity:0.9867"/>
				<stop  offset="1" style="stop-color:#E0E0E1;stop-opacity:0.9213"/>
			</linearGradient>
			<circle class="st7" cx="464.2" cy="589.18" r="201.74"/>
			<linearGradient id="SVGID_2_" gradientUnits="userSpaceOnUse" x1="464.1987" y1="411.2308" x2="464.1987" y2="766.9539">
				<stop  offset="0" style="stop-color:#D3D4D6"/>
				<stop  offset="1" style="stop-color:#FFFFFF"/>
			</linearGradient>
			<circle class="st8" cx="464.2" cy="589.18" r="180.74"/>
			<g>
				<radialGradient id="SVGID_3_" cx="464.1984" cy="589.1808" r="171.7413" gradientUnits="userSpaceOnUse">
					<stop  offset="0" style="stop-color:#7AC584"/>
					<stop  offset="0.1223" style="stop-color:#7AC584"/>
					<stop  offset="0.1429" style="stop-color:#7AC584"/>
					<stop  offset="0.4041" style="stop-color:#78C383"/>
					<stop  offset="0.5517" style="stop-color:#73BA7F"/>
					<stop  offset="0.6709" style="stop-color:#6AAD79"/>
					<stop  offset="0.7751" style="stop-color:#5D996F"/>
					<stop  offset="0.8693" style="stop-color:#4D7F63"/>
					<stop  offset="0.9552" style="stop-color:#396055"/>
					<stop  offset="1" style="stop-color:#2C4D4C"/>
				</radialGradient>
				<circle class="st9" cx="464.2" cy="589.18" r="171.74"/>
				<g>
					<linearGradient id="SVGID_4_" gradientUnits="userSpaceOnUse" x1="465.1042" y1="416.3271" x2="465.1042" y2="591.3849">
						<stop  offset="0" style="stop-color:#FFFFFF;stop-opacity:0"/>
						<stop  offset="1" style="stop-color:#FFFFFF;stop-opacity:0.8"/>
					</linearGradient>
					<polygon class="st10" points="480.53,414.07 466.84,550.65 464.07,412.53 461.43,551.23 449.68,413.42 457.53,585.62 
						464.32,585.18 464.32,585.16 469.81,585.62 					"/>
					
						<linearGradient id="SVGID_5_" gradientUnits="userSpaceOnUse" x1="479.87" y1="262.1943" x2="479.87" y2="437.2521" gradientTransform="matrix(0.9397 -0.342 0.342 0.9397 -134.6745 344.1735)">
						<stop  offset="0" style="stop-color:#FFFFFF;stop-opacity:0"/>
						<stop  offset="1" style="stop-color:#FFFFFF;stop-opacity:0.8"/>
					</linearGradient>
					<polygon class="st11" points="419.65,419.05 453.5,552.07 403.66,423.22 448.62,554.47 390.44,428.98 456.71,588.11 
						462.95,585.37 462.94,585.36 468.25,583.91 					"/>
					
						<linearGradient id="SVGID_6_" gradientUnits="userSpaceOnUse" x1="545.9863" y1="123.1711" x2="545.9863" y2="298.2338" gradientTransform="matrix(0.766 -0.6428 0.6428 0.766 -143.6154 712.7962)">
						<stop  offset="0" style="stop-color:#FFFFFF;stop-opacity:0"/>
						<stop  offset="1" style="stop-color:#FFFFFF;stop-opacity:0.8"/>
					</linearGradient>
					<polygon class="st12" points="364.15,444.54 441.45,557.96 350.55,453.94 437.68,561.89 340.1,463.87 456.8,590.74 
						461.72,586.03 461.71,586.02 466.2,582.85 					"/>
					
						<linearGradient id="SVGID_7_" gradientUnits="userSpaceOnUse" x1="656.4986" y1="14.1772" x2="656.4986" y2="189.2392" gradientTransform="matrix(0.5 -0.866 0.866 0.5 -25.5706 1063.4095)">
						<stop  offset="0" style="stop-color:#FFFFFF;stop-opacity:0"/>
						<stop  offset="1" style="stop-color:#FFFFFF;stop-opacity:0.8"/>
					</linearGradient>
					<polygon class="st13" points="320.72,487.49 432.15,567.63 311.15,500.96 429.95,572.6 304.72,513.87 457.78,593.18 
						460.8,587.07 460.78,587.06 463.92,582.54 					"/>
					
						<linearGradient id="SVGID_8_" gradientUnits="userSpaceOnUse" x1="796.6448" y1="-49.7402" x2="796.6448" y2="125.3213" gradientTransform="matrix(0.1736 -0.9848 0.9848 0.1736 204.815 1351.4442)">
						<stop  offset="0" style="stop-color:#FFFFFF;stop-opacity:0"/>
						<stop  offset="1" style="stop-color:#FFFFFF;stop-opacity:0.8"/>
					</linearGradient>
					<polygon class="st14" points="294.59,542.69 426.71,579.89 290.21,558.63 426.35,585.32 288.59,572.96 459.53,595.13 
						460.28,588.36 460.26,588.36 461.66,583.04 					"/>
					
						<linearGradient id="SVGID_9_" gradientUnits="userSpaceOnUse" x1="951.5058" y1="-62.8506" x2="951.5058" y2="112.2117" gradientTransform="matrix(-0.1736 -0.9848 0.9848 -0.1736 520.8909 1544.438)">
						<stop  offset="0" style="stop-color:#FFFFFF;stop-opacity:0"/>
						<stop  offset="1" style="stop-color:#FFFFFF;stop-opacity:0.8"/>
					</linearGradient>
					<polygon class="st15" points="288.92,603.51 425.79,593.27 290.25,619.98 427.31,598.5 293.63,634 461.85,596.37 
						460.23,589.75 460.22,589.76 459.72,584.28 					"/>
					
						<linearGradient id="SVGID_10_" gradientUnits="userSpaceOnUse" x1="1100.205" y1="-21.2095" x2="1100.205" y2="153.8548" gradientTransform="matrix(-0.5 -0.866 0.866 -0.5 882.5204 1616.9974)">
						<stop  offset="0" style="stop-color:#FFFFFF;stop-opacity:0"/>
						<stop  offset="1" style="stop-color:#FFFFFF;stop-opacity:0.8"/>
					</linearGradient>
					<polygon class="st16" points="304.39,662.59 429.51,606.16 311.27,677.62 432.72,610.55 319.25,689.64 464.45,596.74 
						460.67,591.07 460.66,591.08 458.31,586.11 					"/>
					
						<linearGradient id="SVGID_11_" gradientUnits="userSpaceOnUse" x1="1226.6732" y1="68.0203" x2="1226.6732" y2="243.0853" gradientTransform="matrix(-0.766 -0.6428 0.6428 -0.766 1248.3059 1561.6226)">
						<stop  offset="0" style="stop-color:#FFFFFF;stop-opacity:0"/>
						<stop  offset="1" style="stop-color:#FFFFFF;stop-opacity:0.8"/>
					</linearGradient>
					<polygon class="st17" points="339.13,712.83 437.41,617 350.74,724.59 441.93,620.03 362.34,733.16 467.02,596.2 
						461.53,592.17 461.52,592.18 457.61,588.31 					"/>
					
						<linearGradient id="SVGID_12_" gradientUnits="userSpaceOnUse" x1="1313.7776" y1="195.6555" x2="1313.7776" y2="370.7157" gradientTransform="matrix(-0.9397 -0.342 0.342 -0.9397 1571.8718 1384.4706)">
						<stop  offset="0" style="stop-color:#FFFFFF;stop-opacity:0"/>
						<stop  offset="1" style="stop-color:#FFFFFF;stop-opacity:0.8"/>
					</linearGradient>
					<polygon class="st18" points="388.96,748.14 448.54,624.49 403.9,755.23 453.82,625.79 417.73,759.31 469.25,594.81 
						462.71,592.9 462.71,592.91 457.71,590.61 					"/>
					
						<linearGradient id="SVGID_13_" gradientUnits="userSpaceOnUse" x1="1352.889" y1="345.1458" x2="1352.889" y2="520.206" gradientTransform="matrix(-1 0 0 -1 1816.1836 1107.1807)">
						<stop  offset="0" style="stop-color:#FFFFFF;stop-opacity:0"/>
						<stop  offset="1" style="stop-color:#FFFFFF;stop-opacity:0.8"/>
					</linearGradient>
					<polygon class="st19" points="447.87,764.29 461.56,627.71 464.33,765.84 466.97,627.13 478.72,764.94 470.87,592.74 
						464.07,593.18 464.08,593.2 458.59,592.74 					"/>
					
						<linearGradient id="SVGID_14_" gradientUnits="userSpaceOnUse" x1="1338.4662" y1="498.9268" x2="1338.4662" y2="673.9874" gradientTransform="matrix(-0.9397 0.342 -0.342 -0.9397 1950.8582 763.0062)">
						<stop  offset="0" style="stop-color:#FFFFFF;stop-opacity:0"/>
						<stop  offset="1" style="stop-color:#FFFFFF;stop-opacity:0.8"/>
					</linearGradient>
					<polygon class="st20" points="508.74,759.31 474.89,626.29 524.74,755.14 479.78,623.9 537.96,749.38 471.69,590.25 
						465.45,592.99 465.46,593 460.15,594.45 					"/>
					
						<linearGradient id="SVGID_15_" gradientUnits="userSpaceOnUse" x1="1271.8239" y1="639.3399" x2="1271.8239" y2="814.4057" gradientTransform="matrix(-0.766 0.6428 -0.6428 -0.766 1959.799 394.3825)">
						<stop  offset="0" style="stop-color:#FFFFFF;stop-opacity:0"/>
						<stop  offset="1" style="stop-color:#FFFFFF;stop-opacity:0.8"/>
					</linearGradient>
					<polygon class="st21" points="564.25,733.82 486.95,620.4 577.85,724.42 490.71,616.47 588.3,714.49 471.6,587.62 
						466.68,592.33 466.69,592.34 462.19,595.52 					"/>
					
						<linearGradient id="SVGID_16_" gradientUnits="userSpaceOnUse" x1="1162.0582" y1="747.4388" x2="1162.0582" y2="922.5031" gradientTransform="matrix(-0.5 0.866 -0.866 -0.5 1841.754 43.7683)">
						<stop  offset="0" style="stop-color:#FFFFFF;stop-opacity:0"/>
						<stop  offset="1" style="stop-color:#FFFFFF;stop-opacity:0.8"/>
					</linearGradient>
					<polygon class="st22" points="607.68,690.88 496.25,610.74 617.25,677.4 498.45,605.76 623.67,664.49 470.62,585.18 
						467.6,591.29 467.62,591.3 464.48,595.82 					"/>
					
						<linearGradient id="SVGID_17_" gradientUnits="userSpaceOnUse" x1="1020.8724" y1="812.2186" x2="1020.8724" y2="987.2823" gradientTransform="matrix(-0.1736 0.9848 -0.9848 -0.1736 1611.3676 -244.2664)">
						<stop  offset="0" style="stop-color:#FFFFFF;stop-opacity:0"/>
						<stop  offset="1" style="stop-color:#FFFFFF;stop-opacity:0.8"/>
					</linearGradient>
					<polygon class="st23" points="633.81,635.67 501.69,598.47 638.19,619.73 502.05,593.04 639.81,605.4 468.87,583.23 
						468.12,590 468.14,590 466.73,595.32 					"/>
					
						<linearGradient id="SVGID_18_" gradientUnits="userSpaceOnUse" x1="867.4861" y1="823.8245" x2="867.4861" y2="998.8882" gradientTransform="matrix(0.1736 0.9848 -0.9848 0.1736 1295.2914 -437.2613)">
						<stop  offset="0" style="stop-color:#FFFFFF;stop-opacity:0"/>
						<stop  offset="1" style="stop-color:#FFFFFF;stop-opacity:0.8"/>
					</linearGradient>
					<polygon class="st24" points="639.48,574.85 502.61,585.09 638.15,558.38 501.09,579.86 634.77,544.36 466.55,581.99 
						468.16,588.61 468.18,588.6 468.68,594.09 					"/>
					
						<linearGradient id="SVGID_19_" gradientUnits="userSpaceOnUse" x1="717.9427" y1="783.2389" x2="717.9427" y2="958.3033" gradientTransform="matrix(0.5 0.866 -0.866 0.5 933.6612 -509.8216)">
						<stop  offset="0" style="stop-color:#FFFFFF;stop-opacity:0"/>
						<stop  offset="1" style="stop-color:#FFFFFF;stop-opacity:0.8"/>
					</linearGradient>
					<polygon class="st25" points="624.01,515.77 498.89,572.2 617.12,500.74 495.68,567.81 609.15,488.72 463.95,581.62 
						467.73,587.29 467.74,587.28 470.09,592.26 					"/>
					
						<linearGradient id="SVGID_20_" gradientUnits="userSpaceOnUse" x1="592.3558" y1="693.2465" x2="592.3558" y2="868.3112" gradientTransform="matrix(0.766 0.6428 -0.6428 0.766 567.8748 -454.4453)">
						<stop  offset="0" style="stop-color:#FFFFFF;stop-opacity:0"/>
						<stop  offset="1" style="stop-color:#FFFFFF;stop-opacity:0.8"/>
					</linearGradient>
					<polygon class="st26" points="589.27,465.54 490.99,561.36 577.65,453.77 486.48,558.33 566.05,445.21 461.38,582.16 
						466.87,586.19 466.88,586.18 470.79,590.06 					"/>
					
						<linearGradient id="SVGID_21_" gradientUnits="userSpaceOnUse" x1="503.8731" y1="566.1656" x2="503.8731" y2="741.226" gradientTransform="matrix(0.9397 0.342 -0.342 0.9397 244.3079 -277.2909)">
						<stop  offset="0" style="stop-color:#FFFFFF;stop-opacity:0"/>
						<stop  offset="1" style="stop-color:#FFFFFF;stop-opacity:0.8"/>
					</linearGradient>
					<polygon class="st27" points="539.43,430.22 479.86,553.87 524.5,423.13 474.58,552.57 510.67,419.05 459.15,583.55 
						465.69,585.46 465.69,585.44 470.69,587.75 					"/>
				</g>
				<radialGradient id="SVGID_22_" cx="463.6612" cy="585.957" r="79.6076" gradientUnits="userSpaceOnUse">
					<stop  offset="0" style="stop-color:#FFFFFF;stop-opacity:0.9"/>
					<stop  offset="1" style="stop-color:#FFFFFF;stop-opacity:0"/>
				</radialGradient>
				<path class="st28" d="M539.94,589.18c0,41.83-33.91,75.75-75.74,75.75c-41.83,0-75.75-33.91-75.75-75.75
					c0-41.83,33.91-75.75,75.75-75.75C506.03,513.43,539.94,547.35,539.94,589.18z"/>
				<path class="st29" d="M515.95,589.18c0,28.58-23.17,51.75-51.75,51.75c-28.58,0-51.75-23.17-51.75-51.75
					c0-28.58,23.17-51.75,51.75-51.75C492.78,537.43,515.95,560.6,515.95,589.18z"/>
				<circle class="st30" cx="496.51" cy="549.75" r="28.5"/>
				<radialGradient id="SVGID_23_" cx="528.0079" cy="447.2507" r="213.0373" gradientUnits="userSpaceOnUse">
					<stop  offset="0" style="stop-color:#FFFFFF;stop-opacity:0.9"/>
					<stop  offset="1" style="stop-color:#FFFFFF;stop-opacity:0"/>
				</radialGradient>
				<path class="st31" d="M463.76,434.75c-84.91,0-153.74,68.83-153.74,153.74c0,84.91,68.83,153.74,153.74,153.74
					c84.91,0,153.74-68.83,153.74-153.74C617.5,503.58,548.67,434.75,463.76,434.75z M463.76,731.74
					c-79.11,0-143.24-64.13-143.24-143.24c0-79.11,64.13-143.24,143.24-143.24c79.11,0,143.24,64.13,143.24,143.24
					C607,667.6,542.87,731.74,463.76,731.74z"/>
				<linearGradient id="SVGID_24_" gradientUnits="userSpaceOnUse" x1="393.5519" y1="744.592" x2="438.55" y2="651.5968">
					<stop  offset="0" style="stop-color:#FFFFFF;stop-opacity:0.9"/>
					<stop  offset="1" style="stop-color:#FFFFFF;stop-opacity:0"/>
				</linearGradient>
				<path class="st32" d="M463.51,742.23v-93.15c-12.16,0.12-24.08-2.79-34.49-10.28c-6.24-4.49-11.45-9.7-15.8-15.45
					c-20.62,23.27-41.32,46.49-63.07,68.69C378.22,722.82,418.6,742.16,463.51,742.23z"/>
				<linearGradient id="SVGID_25_" gradientUnits="userSpaceOnUse" x1="290.8855" y1="653.7775" x2="386.8812" y2="596.7802">
					<stop  offset="0" style="stop-color:#FFFFFF;stop-opacity:0.9"/>
					<stop  offset="1" style="stop-color:#FFFFFF;stop-opacity:0"/>
				</linearGradient>
				<path class="st33" d="M410.08,618.9c-6.02-9.25-10-19.67-12.32-30.66h-87.73c0,0.08,0,0.17,0,0.25
					c0,33.87,10.96,65.17,29.51,90.57C363.78,659.3,387.22,639.29,410.08,618.9z"/>
				
					<radialGradient id="SVGID_26_" cx="1657.7048" cy="-3433.5874" r="13.6569" gradientTransform="matrix(-0.0569 -0.9946 0.9984 -0.0571 3961.8442 2066.1072)" gradientUnits="userSpaceOnUse">
					<stop  offset="0" style="stop-color:#FFFFFF"/>
					<stop  offset="0.1131" style="stop-color:#D4D4D4"/>
					<stop  offset="0.297" style="stop-color:#959595"/>
					<stop  offset="0.473" style="stop-color:#5F5F5F"/>
					<stop  offset="0.6359" style="stop-color:#363636"/>
					<stop  offset="0.7831" style="stop-color:#181818"/>
					<stop  offset="0.9093" style="stop-color:#060606"/>
					<stop  offset="1" style="stop-color:#000000"/>
				</radialGradient>
				<path class="st34" d="M438.65,599.83c7.53-0.43,13.98,5.3,14.41,12.8c0.43,7.51-5.33,13.93-12.86,14.36
					c-7.53,0.43-13.98-5.3-14.41-12.8C425.36,606.69,431.12,600.26,438.65,599.83z"/>
			</g>
		</g>
	</g>
</g>
</svg>
